<svg id="NewLookLogo" viewBox="0 0 159 18" fill="none" style="max-width:260px; min-width:160px; display:inline-block;" xmlns="http://www.w3.org/2000/svg">
<path d="M59.1 13.4C58.3 11.4 54.1 1 54.1 1H52.7L47.7 13.4L42.8 1H40.7L47.1 17H48.5L53.4 4.6L58.4 17H59.8L66.2 1H64.1L59.1 13.4ZM22.9 17H24.5H36.5V15H24.8V10H34.2V8H24.8V3H36.5V1H22.9V17ZM14 14.1L2 1H0V17H2V3.9L14 17H16V1H14V14.1ZM84 1H82V17H95.7V15H84V1ZM148.7 7.8L157.6 1H154.5L142.9 9.9V1H140.9V17H142.9V12.3L147.1 9L155.5 17H158.4L148.7 7.8ZM127.4 0.800003C122.9 0.800003 119.2 4.5 119.2 9C119.2 13.5 122.9 17.2 127.4 17.2C131.9 17.2 135.6 13.5 135.6 9C135.6 4.4 131.9 0.800003 127.4 0.800003ZM127.5 15.1C124.1 15.1 121.3 12.3 121.3 8.9C121.3 5.5 124.1 2.7 127.5 2.7C130.9 2.7 133.7 5.5 133.7 8.9C133.7 12.3 130.9 15.1 127.5 15.1ZM106.6 0.800003C102.1 0.800003 98.4 4.5 98.4 9C98.4 13.5 102.1 17.2 106.6 17.2C111.1 17.2 114.8 13.5 114.8 9C114.8 4.4 111.1 0.800003 106.6 0.800003ZM106.6 15.1C103.2 15.1 100.4 12.3 100.4 8.9C100.4 5.5 103.2 2.7 106.6 2.7C110 2.7 112.8 5.5 112.8 8.9C112.8 12.3 110 15.1 106.6 15.1Z" fill="#1c1c1c"></path>
</svg>