<svg width="24" height="24" viewBox="0 0 24 24" fill="none" xmlns="http://www.w3.org/2000/svg">
        <path d="M12 22C17.5228 22 22 17.5228 22 12C22 6.47715 17.5228 2 12 2C6.47715 2 2 6.47715 2 12C2 17.5228 6.47715 22 12 22Z" stroke="white" stroke-width="1.2" stroke-linecap="round" stroke-linejoin="round"></path>
        <path d="M7.68994 15C8.13141 15.7507 8.76131 16.3731 9.51727 16.8055C10.2732 17.238 11.129 17.4655 11.9999 17.4655C12.8708 17.4655 13.7266 17.238 14.4826 16.8055C15.2386 16.3731 15.8685 15.7507 16.3099 15" stroke="white" stroke-width="1.2" stroke-linecap="round" stroke-linejoin="round"></path>
        <path d="M8.7 11.2C9.36274 11.2 9.9 10.6627 9.9 10C9.9 9.33726 9.36274 8.8 8.7 8.8C8.03726 8.8 7.5 9.33726 7.5 10C7.5 10.6627 8.03726 11.2 8.7 11.2Z" fill="white"></path>
        <path d="M15.3 11.2C15.9627 11.2 16.5 10.6627 16.5 10C16.5 9.33726 15.9627 8.8 15.3 8.8C14.6372 8.8 14.1 9.33726 14.1 10C14.1 10.6627 14.6372 11.2 15.3 11.2Z" fill="white"></path>
    </svg>