<svg xmlns="http://www.w3.org/2000/svg" viewBox="0 0 24 24"><path d="M13 19c1.2-1 2.4-2 3.5-3.1 1.5-1.4 2.7-2.8 3.5-4.1 0.1-0.1 0.2-0.3 0.3-0.4 3-4.8-3.2-10-7.6-6 -0.4 0.4-1 0.4-1.4 0 -4.4-4-10.5 1.1-7.6 6 1.7 2.7 4.4 5.5 8.2 8.3C12.3 19.5 12.6 19.3 13 19zM21.9 12.5c-0.1 0.2-0.2 0.3-0.3 0.5 -0.9 1.4-2.2 2.9-3.8 4.4 -1.2 1.1-2.4 2.2-3.6 3.2 -0.4 0.3-0.8 0.7-1.2 0.9 -0.1 0.1-0.2 0.2-0.3 0.3 -0.1 0-0.1 0-0.1 0.1 -0.4 0.3-0.9 0.3-1.2 0 -4.3-3.1-7.5-6.2-9.4-9.3C-2 6 6-1.1 12 3.5 18-1.1 26 6 21.9 12.5z"></path></svg>